<svg width="885" height="249" fill="none" xmlns="http://www.w3.org/2000/svg"><path fill-rule="evenodd" clip-rule="evenodd" d="M853.72 153.28c0 .3-.22.55-.48.55-7.32 0-11.22 1.88-17.46 4.9l-1.51.73c-.87.41-1.86.16-2.85-.43-1-.6-2.1-1.6-3.23-2.83-2.28-2.49-4.82-6.07-7.31-9.82a420.88 420.88 0 0 1-4.85-7.54l-2.16-3.39a114.86 114.86 0 0 0-2.78-4.17 15.7 15.7 0 0 0-1.92-2.37c-12.22-10.9-29.31-2.02-32.24 13.33a47.3 47.3 0 0 1-2.35 8.7c-.84 2.08-1.77 3.45-2.82 4.23-2.15 1.58-4.53.55-6.95-.97-.72-.45-1.45-.95-2.2-1.46a33.2 33.2 0 0 0-5.97-3.47c-2.98-1.22-6.25-1.53-9.9.6-1.12.65-2.7 2.2-4.46 4.23-1.74 2-3.64 4.42-5.38 6.75a352.78 352.78 0 0 0-4.52 6.17l-1.4 1.93a15.76 15.76 0 0 1-.54.69c-.02.01-.08.07-.16.1a.42.42 0 0 1-.34 0 .51.51 0 0 1-.3-.45 29.91 29.91 0 0 0-6.9-15.6c-3.7-4.28-8.38-6.91-13.1-6.07-7.61 1.37-12.01 6.73-15.68 13.17a145.6 145.6 0 0 0-3.35 6.38c-.62 1.24-1.25 2.48-1.9 3.71-1.77 3.37-3.67 6.63-6.01 9.36a1.8 1.8 0 0 1-.97.64c-.35.07-.7 0-1-.14a5.4 5.4 0 0 1-1.67-1.5l-.75-.98c-.25-.33-.48-.64-.71-.92a6.54 6.54 0 0 0-.64-.7 1.5 1.5 0 0 0-.5-.33c-1.77-.6-4.15-.72-6.56-.57-2.4.15-4.79.58-6.58 1.1-2.86.84-6.5 3.04-10.56 5.84-2.2 1.51-4.5 3.19-6.85 4.9a435.8 435.8 0 0 1-6.05 4.35c-4.42 3.1-8.85 5.97-12.89 7.75-4.02 1.78-7.76 2.52-10.75 1.24a78.88 78.88 0 0 1-7.18-3.57c-1.54-.83-3-1.61-4.5-2.32a27.94 27.94 0 0 0-12.63-2.93c-2.4 0-3.75.6-4.65 1.33-.45.38-.8.8-1.13 1.24l-.41.58-.06.1-.48.66a3.5 3.5 0 0 1-3.08 1.59c-1.48-.01-3.57-.69-6.8-2.36-4.83-2.5-9.15-6.5-13.43-10.65l-1.5-1.46c-3.79-3.7-7.58-7.4-11.73-10.24a123.2 123.2 0 0 1-6.78-5.54l-3.38-2.86c-4.63-3.9-10.2-8.45-15.76-12.34-5.58-3.9-11.12-7.09-15.7-8.3-2.29-.61-4.3-.72-5.94-.2a6.03 6.03 0 0 0-3.77 3.5c-2.6 5.73-2.42 12.03-2.23 18.47l.04 1.51c.19 6.9.12 13.9-3.94 19.97-5.65 8.47-9.63 18.94-9.63 29.96 0 2.8-.7 11.1-1.75 18.34a76.18 76.18 0 0 1-1.82 9.34 9.84 9.84 0 0 1-1.1 2.68c-.2.29-.46.55-.78.64-.35.1-.68-.02-.95-.28-2.57-2.5-6.84-3.73-12.02-4.34-4.43-.53-9.43-.58-14.42-.64l-2.46-.04c-5.78-.08-11.44-.26-15.98-1.3-4.51-1.03-8.1-2.94-9.52-6.64a27.6 27.6 0 0 1-1.5-6.54l-.16-1.35a29.17 29.17 0 0 0-.64-4 6.05 6.05 0 0 0-2.3-3.6c-1.26-.91-3.2-1.54-6.25-1.72-4.31-.27-7.23-1.16-9.22-2.68-2-1.53-3-3.67-3.52-6.24a52.64 52.64 0 0 1-.7-7.68l-.05-1.26a72.6 72.6 0 0 0-1.23-11.26 53.2 53.2 0 0 1-.57-3.77 63.72 63.72 0 0 0-.82-4.79c-.35-1.56-.77-2.9-1.28-3.74a2.17 2.17 0 0 0-.75-.8.9.9 0 0 0-.81.02c-7.85 3.55-15.92 6.04-24.01 8.54l-.52.16c-6.4 1.97-10.79 3.04-13.88 3.2-3.12.15-5.03-.6-6.34-2.4a11.5 11.5 0 0 1-1.53-3.23 62.56 62.56 0 0 1-1.2-4.4l-.05-.2a89.2 89.2 0 0 0-3.7-12.23 26.88 26.88 0 0 0-6.5-9.66 90.97 90.97 0 0 0-3.65-3.37l-.45-.41a80.04 80.04 0 0 1-4.33-4.1 25.58 25.58 0 0 0-4.67-3.45c-.86-.53-1.79-1.08-2.74-1.65-1.16-.7-2.36-1.41-3.5-2.13a35.05 35.05 0 0 1-5.6-4.17c-1.5-1.46-2.62-3.09-2.8-4.89-.37-3.63-1.6-5.3-3.18-5.9-1.65-.63-3.83-.17-6.2.94-4.73 2.2-9.81 6.74-11.9 8.7l-7.57 6.98c-18.25 16.76-34.7 31.87-46.75 56.46l-.09.18c-1.1 2.26-4.94 10.1-8.66 15.14a20.95 20.95 0 0 1-2.84 3.25c-.91.8-1.84 1.34-2.73 1.32-.94-.03-1.7-.69-2.2-1.91-.51-1.2-.82-2.99-.93-5.47-.32-7.45-2.67-15.42-5.7-23.15a278.28 278.28 0 0 0-7.7-17.25c-.7-1.5-1.4-2.96-2.05-4.37-12.37-26.54-26.08-53.88-47.6-71.38-1.55-1.27-2.95-2.38-4.21-3.38-3.37-2.68-5.82-4.62-8.03-6.97-3.05-3.26-5.64-7.31-9.63-15.16l-.89-1.75c-4.06-8.03-8.41-16.6-13.78-22.52-2.87-3.17-6-5.55-9.52-6.67-3.5-1.12-7.43-1-11.88.88-1.55.66-3.21 2-4.9 3.76a54.92 54.92 0 0 0-4.98 6.2 171.48 171.48 0 0 0-6.84 10.79l-1.15 1.9c-13 21.47-29.65 38.2-46.5 55.14-2.72 2.72-5.44 5.46-8.15 8.21-.2.2-.5.18-.67-.05a.62.62 0 0 1 .05-.77c2.72-2.77 5.44-5.5 8.16-8.24C43.32 99 59.88 82.36 72.8 61.01l1.14-1.88c1.82-3.05 4.24-7.1 6.9-10.87a55.96 55.96 0 0 1 5.07-6.33c1.73-1.8 3.5-3.24 5.2-3.97 4.63-1.96 8.75-2.1 12.46-.9 3.7 1.18 6.98 3.67 9.92 6.92 5.47 6.03 9.88 14.74 13.93 22.73l.9 1.78c3.98 7.82 6.5 11.76 9.46 14.9 2.15 2.3 4.52 4.18 7.86 6.83 1.28 1.01 2.7 2.14 4.29 3.44 21.71 17.66 35.52 45.23 47.88 71.76l2.04 4.33a279.62 279.62 0 0 1 7.73 17.35c3.05 7.78 5.46 15.9 5.8 23.55.1 2.44.4 4.05.82 5.05.4.97.89 1.28 1.38 1.29.56.01 1.28-.34 2.14-1.1a20.3 20.3 0 0 0 2.7-3.08c3.65-4.97 7.45-12.72 8.56-14.98l.08-.18c12.16-24.78 28.75-40.03 46.99-56.78 2.49-2.29 5.01-4.6 7.55-6.98 2.1-1.94 7.27-6.59 12.15-8.85 2.42-1.13 4.87-1.72 6.84-.96 2.05.78 3.43 2.93 3.82 6.81.14 1.37 1.02 2.76 2.48 4.17a34.19 34.19 0 0 0 5.44 4.06c1.15.72 2.31 1.41 3.45 2.1.95.56 1.88 1.11 2.78 1.67a26.77 26.77 0 0 1 4.85 3.6 78.65 78.65 0 0 0 4.28 4.05l.46.4a93.4 93.4 0 0 1 3.68 3.41 27.96 27.96 0 0 1 6.75 10.04 93.48 93.48 0 0 1 3.75 12.37l.05.22c.41 1.67.77 3.1 1.17 4.31.4 1.21.82 2.17 1.37 2.91 1.04 1.43 2.6 2.16 5.58 2 2.98-.15 7.28-1.18 13.68-3.16l.5-.15c8.1-2.5 16.13-4.97 23.92-8.5a1.7 1.7 0 0 1 1.53 0 3 3 0 0 1 1.15 1.17 14.4 14.4 0 0 1 1.42 4.1 64.82 64.82 0 0 1 1 5.92c.14 1.1.27 2.03.4 2.65.85 4.21 1.1 8.06 1.25 11.46l.06 1.26c.13 2.88.24 5.37.67 7.48.49 2.39 1.37 4.24 3.12 5.58 1.78 1.36 4.5 2.24 8.75 2.5 3.12.2 5.24.83 6.7 1.89a7.13 7.13 0 0 1 2.7 4.2c.34 1.28.5 2.74.68 4.24l.16 1.28c.25 1.99.6 4.1 1.42 6.26 1.21 3.16 4.37 4.98 8.84 6 4.45 1.02 10.02 1.2 15.8 1.29l2.46.03c5 .06 10.04.12 14.51.64 5.2.62 9.73 1.87 12.54 4.6.08.08.11.06.11.06.03-.01.13-.06.28-.27.29-.42.6-1.21.94-2.34a75.07 75.07 0 0 0 1.78-9.17c1.05-7.22 1.74-15.45 1.74-18.16 0-11.32 4.08-22.03 9.83-30.63 3.82-5.74 3.92-12.35 3.74-19.27l-.05-1.55c-.18-6.38-.38-12.97 2.34-18.97a7.02 7.02 0 0 1 4.36-4.06c1.85-.58 4.03-.44 6.4.2 4.73 1.25 10.38 4.52 15.97 8.43 5.6 3.9 11.2 8.48 15.83 12.38l3.44 2.9a111 111 0 0 0 6.65 5.45c4.22 2.9 8.08 6.66 11.86 10.35l1.5 1.46c4.27 4.15 8.51 8.06 13.2 10.49 3.21 1.66 5.15 2.25 6.42 2.26.63 0 1.07-.13 1.43-.33.36-.21.65-.51.95-.9l.44-.62.5-.7c.34-.47.75-.97 1.3-1.41 1.1-.9 2.65-1.54 5.19-1.54 5.36 0 9.27 1.26 12.98 3a97.58 97.58 0 0 1 5.53 2.88 78.16 78.16 0 0 0 6.13 3.01c2.65 1.14 6.11.52 10.09-1.24 3.96-1.74 8.32-4.56 12.73-7.66 2-1.4 4.03-2.88 6.02-4.33 2.37-1.72 4.7-3.42 6.89-4.93 4.06-2.8 7.8-5.07 10.82-5.95 1.84-.54 4.3-.99 6.75-1.14 2.45-.16 4.95-.03 6.87.61.3.1.57.3.82.53.25.22.5.5.74.8l.73.94v.02l.74.94c.5.6.93 1.05 1.33 1.24.19.09.34.1.48.08a.92.92 0 0 0 .47-.33c2.26-2.64 4.12-5.81 5.88-9.16.63-1.2 1.25-2.43 1.87-3.66a149.2 149.2 0 0 1 3.4-6.46c3.73-6.56 8.32-12.22 16.33-13.65 5.1-.92 10.08 1.94 13.9 6.38a31.35 31.35 0 0 1 7.01 15.1l1.23-1.7v-.01c1.18-1.63 2.78-3.86 4.54-6.19 1.75-2.33 3.66-4.77 5.43-6.8 1.76-2.02 3.42-3.7 4.69-4.43 3.93-2.3 7.48-1.95 10.64-.66 2.24.92 4.33 2.34 6.21 3.61.73.5 1.43.98 2.1 1.4 2.45 1.53 4.35 2.21 6 1 .83-.62 1.67-1.79 2.47-3.77.8-1.98 1.57-4.73 2.28-8.47 3.07-16.08 20.92-25.38 33.74-13.96.55.5 1.26 1.4 2.07 2.54a241.83 241.83 0 0 1 4.97 7.62c1.53 2.41 3.17 5 4.83 7.5 2.49 3.75 5 7.27 7.22 9.7a14.61 14.61 0 0 0 3.01 2.65c.9.53 1.57.63 2.06.4l1.52-.74c6.24-3.02 10.3-4.98 17.81-4.98.26 0 .48.25.48.55Z" fill="#fff"/><path d="M70.56 10.1h2.63c1.6 0 2.32-.93 2.32-2.15 0-1.24-.75-1.94-1.43-1.98v-.08c.63-.19 1.16-.69 1.16-1.69 0-1.18-.7-2.1-2.17-2.1h-2.5v8Zm1.04-1.04V6.5h1.53c.83 0 1.35.63 1.35 1.39 0 .67-.4 1.17-1.39 1.17h-1.5Zm0-3.5V3.13H73c.82 0 1.21.5 1.21 1.17a1.2 1.2 0 0 1-1.24 1.26H71.6Zm6.55 4.54h4.34V9.06h-3.3V6.6h3.03V5.58h-3.04V3.14h3.27V2.1h-4.3v8Zm6.58 0h.29c1.56 0 1.94-1.35 2.03-3.92l.1-3.05h2.34v6.97h1.03v-8h-4.34l-.12 3.76c-.07 2.31-.31 3.16-1.13 3.18l-.2.01v1.05Zm8.71-8v8h.95l3.48-5.87h.07v5.87h1.03v-8h-.95l-3.5 5.87h-.06V2.1h-1.02Zm12.52 8h1.26l-2.83-4.38 2.85-3.62h-1.28l-2.67 3.38h-.36V2.1h-1.03v8h1.03V6.5h.71l2.32 3.59Zm3.73-8v8h.95l3.48-5.87h.07v5.87h1.03v-8h-.96l-3.49 5.87h-.06V2.1h-1.02Zm8.46 0v8h.95l3.48-5.87h.07v5.87h1.03v-8h-.96l-3.49 5.87h-.06V2.1h-1.02Zm3.42-2.03c0 .4-.19.75-.65.75-.48 0-.66-.36-.66-.75h-.82c0 .88.57 1.49 1.48 1.49.9 0 1.48-.6 1.48-1.49h-.83Zm-55.3 23.21h1.04V19.8h3.42v3.48h1.03V15.3h-1.03v3.48H67.3V15.3h-1.04v8Zm14.37-3.99c0-2.56-1.3-4.1-3.08-4.1-1.79 0-3.1 1.54-3.1 4.1 0 2.55 1.31 4.1 3.1 4.1 1.77 0 3.08-1.55 3.08-4.1Zm-1.02 0c0 1.95-.88 3-2.06 3-1.19 0-2.07-1.05-2.07-3s.88-3 2.07-3c1.18 0 2.06 1.05 2.06 3Zm3.73 3.99h2.63c1.6 0 2.31-.92 2.31-2.15s-.74-1.93-1.42-1.97v-.08c.63-.19 1.15-.69 1.15-1.69 0-1.18-.7-2.1-2.16-2.1h-2.51v8Zm1.03-1.03V19.7h1.53c.83 0 1.35.62 1.35 1.39 0 .67-.39 1.17-1.38 1.17h-1.5Zm0-3.5v-2.43h1.42c.82 0 1.2.5 1.2 1.17a1.2 1.2 0 0 1-1.23 1.26h-1.39Zm10.83-3.45h-4.28v7.98h1.04v-6.95h3.24v-1.04Zm8.25 3.99c0-2.56-1.3-4.1-3.08-4.1-1.79 0-3.1 1.54-3.1 4.1 0 2.55 1.31 4.1 3.1 4.1 1.77 0 3.08-1.55 3.08-4.1Zm-1.02 0c0 1.95-.88 3-2.06 3-1.19 0-2.07-1.05-2.07-3s.88-3 2.07-3c1.18 0 2.06 1.05 2.06 3Zm3.73 3.99h1.03v-2.8h1.41c1.6 0 2.38-1.13 2.38-2.6 0-1.47-.78-2.59-2.38-2.59h-2.44v8Zm1.03-3.83v-3.12h1.3c1.03 0 1.45.64 1.45 1.55 0 .9-.42 1.57-1.43 1.57h-1.32Zm12.37-.16c0-2.56-1.3-4.1-3.08-4.1s-3.1 1.54-3.1 4.1c0 2.55 1.31 4.1 3.1 4.1 1.77 0 3.08-1.55 3.08-4.1Zm-1.02 0c0 1.95-.88 3-2.06 3-1.19 0-2.07-1.05-2.07-3s.88-3 2.07-3c1.18 0 2.06 1.05 2.06 3Zm3.21 5.93h1v-1.94h4.6v1.93h.99v-2.95h-.78V15.3h-4.23l-.16 3.38c-.1 2.22-.5 3.14-.97 3.6h-.45v2.95Zm1.67-2.96c.4-.73.66-1.9.74-3.6l.1-2.33h2.3v5.93h-3.14ZM6.24 137.28H.94v8h1.04v-6.97H5.2v6.97h1.03v-8Zm8.69 2.6c-.23-1.7-1.38-2.7-2.83-2.7-1.78 0-3.09 1.54-3.09 4.1 0 2.56 1.3 4.1 3.09 4.1 1.5 0 2.6-1.1 2.83-2.68H13.9c-.18 1.02-.92 1.58-1.79 1.58-1.17 0-2.06-1.05-2.06-3 0-1.94.89-3 2.07-3 .87 0 1.6.57 1.78 1.6h1.04Zm6.72 5.4h1.26l-2.83-4.38 2.85-3.62h-1.29l-2.67 3.38h-.35v-3.38h-1.04v8h1.04v-3.59h.7l2.33 3.59Zm9.34-4c0-2.56-1.31-4.1-3.09-4.1-1.78 0-3.09 1.54-3.09 4.1 0 2.55 1.3 4.1 3.1 4.1 1.77 0 3.08-1.54 3.08-4.1Zm-1.03 0c0 1.95-.88 3-2.06 3-1.18 0-2.06-1.05-2.06-3s.88-3 2.06-3c1.18 0 2.06 1.05 2.06 3Zm3.74 4h2.62c1.6 0 2.32-.93 2.32-2.16s-.75-1.93-1.43-1.97v-.08c.63-.19 1.16-.69 1.16-1.69 0-1.18-.7-2.1-2.16-2.1h-2.52v8Zm1.03-1.04v-2.56h1.53c.83 0 1.35.63 1.35 1.39 0 .67-.4 1.17-1.39 1.17h-1.5Zm0-3.5v-2.43h1.41c.82 0 1.21.5 1.21 1.17a1.2 1.2 0 0 1-1.23 1.26h-1.4ZM154.87 168H157v6.95h1.03v-6.96h2.14v-1.04h-5.31V168Zm7.89 6.95h2.63c1.6 0 2.32-.93 2.32-2.15 0-1.24-.75-1.94-1.43-1.98v-.08c.63-.19 1.16-.69 1.16-1.69 0-1.18-.7-2.1-2.16-2.1h-2.52v8Zm1.04-1.04v-2.56h1.53c.83 0 1.35.63 1.35 1.39 0 .67-.4 1.17-1.39 1.17h-1.49Zm0-3.5v-2.43h1.41c.82 0 1.22.5 1.22 1.17a1.2 1.2 0 0 1-1.24 1.26h-1.39Zm6.55 4.54h4.34v-1.04h-3.3v-2.45h3.04v-1.03h-3.05v-2.44h3.27v-1.04h-4.3v8Zm7.1 0h1.03v-2.81h1.4c1.6 0 2.39-1.12 2.39-2.6 0-1.47-.78-2.59-2.38-2.59h-2.44v8Zm1.03-3.83v-3.13h1.3c1.03 0 1.44.65 1.44 1.55s-.41 1.58-1.43 1.58h-1.3Zm7.46-.94v-3.23h-1.04v8h2.57c1.53 0 2.4-1 2.4-2.43 0-1.43-.87-2.34-2.4-2.34h-1.53Zm0 1.01h1.53c.89 0 1.38.6 1.38 1.32 0 .74-.5 1.42-1.38 1.42h-1.53v-2.74Zm61.51 27.94v-8h-2.44c-1.6 0-2.38 1.04-2.38 2.5 0 1.08.42 1.9 1.26 2.26l-1.52 3.24h1.18l1.4-3.03h1.46v3.03h1.04Zm-1.03-4.07h-1.32c-1 0-1.43-.52-1.43-1.42 0-.9.43-1.47 1.45-1.47h1.3v2.9Zm3.95 4.07h1.03v-2.81h1.41c1.6 0 2.38-1.12 2.38-2.6 0-1.47-.78-2.59-2.38-2.59h-2.44v8Zm1.03-3.84v-3.12h1.3c1.03 0 1.45.65 1.45 1.55s-.42 1.57-1.43 1.57h-1.31Zm12.37-.16c0-2.56-1.3-4.1-3.08-4.1-1.79 0-3.1 1.54-3.1 4.1 0 2.55 1.31 4.1 3.1 4.1 1.77 0 3.08-1.54 3.08-4.1Zm-1.02 0c0 1.95-.88 3-2.06 3-1.19 0-2.07-1.05-2.07-3s.88-3 2.07-3c1.18 0 2.06 1.05 2.06 3Zm9.43-1.4c-.24-1.7-1.39-2.7-2.84-2.7-1.77 0-3.08 1.54-3.08 4.1 0 2.56 1.3 4.1 3.08 4.1 1.51 0 2.61-1.1 2.84-2.68h-1.05c-.18 1.02-.91 1.58-1.78 1.58-1.18 0-2.06-1.04-2.06-3 0-1.94.88-3 2.06-3 .88 0 1.61.57 1.78 1.6h1.05Zm2.13 5.4h.3c1.56 0 1.93-1.35 2.02-3.92l.1-3.05h2.35v6.97h1.02v-8h-4.34l-.11 3.76c-.08 2.31-.32 3.16-1.14 3.18l-.2.01v1.05Zm9.29 0 .63-2.12h2.68l.63 2.12h1.1l-2.47-8h-1.2l-2.47 8h1.1Zm.93-3.13 1.01-3.41h.06l1 3.4h-2.07Zm6.51 3.13h2.63c1.6 0 2.31-.93 2.31-2.15 0-1.24-.74-1.94-1.42-1.98v-.08c.63-.19 1.16-.69 1.16-1.69 0-1.18-.7-2.1-2.17-2.1h-2.5v8Zm1.04-1.04v-2.56h1.53c.83 0 1.35.63 1.35 1.39 0 .67-.4 1.17-1.4 1.17h-1.48Zm0-3.5v-2.43h1.4c.83 0 1.22.5 1.22 1.17a1.2 1.2 0 0 1-1.24 1.26h-1.38Zm6.02 4.54h.3c1.56 0 1.94-1.35 2.03-3.92l.1-3.05h2.35v6.97h1.02v-8h-4.34l-.12 3.76c-.07 2.31-.31 3.16-1.13 3.18l-.2.01v1.05Zm9.76-4.77v-3.23h-1.03v8h2.56c1.53 0 2.4-1 2.4-2.43 0-1.43-.87-2.34-2.4-2.34h-1.53Zm0 1.01h1.53c.9 0 1.38.6 1.38 1.32 0 .74-.49 1.42-1.38 1.42h-1.53v-2.74Zm13.29-70.17v7.98h.99v-5.78h.06l2.03 5.77h.81l2.03-5.77h.06v5.78h.98v-7.99h-1.25l-2.19 6.22h-.08l-2.18-6.22h-1.26Zm10.64 7.99.63-2.12h2.68l.62 2.12h1.1l-2.47-8h-1.2l-2.46 8h1.1Zm.93-3.13 1.01-3.42h.05l1.02 3.42h-2.08Zm6.51 3.13h1.03v-3.49h3.42v3.49h1.04v-8h-1.04v3.48h-3.42v-3.48h-1.03v8Zm8.07-6.96h2.14v6.95h1.03v-6.95h2.14v-1.04h-5.3v1.04Zm8.38 7.07h.47c1.07 0 1.43-.7 1.73-1.5l2.37-6.6h-1.08l-1.6 4.61-1.8-4.62h-1.1l2.41 6-.1.29c-.14.41-.37.75-.88.75h-.42v1.06Zm6.96-.11h1.04v-2.81h1.4c1.6 0 2.38-1.13 2.38-2.6 0-1.47-.78-2.59-2.37-2.59h-2.44v8Zm1.04-3.84v-3.12h1.3c1.02 0 1.44.64 1.44 1.55 0 .9-.42 1.57-1.43 1.57h-1.31Zm12.37-.16c0-2.56-1.31-4.1-3.09-4.1-1.78 0-3.09 1.54-3.09 4.1 0 2.55 1.31 4.1 3.1 4.1 1.77 0 3.08-1.54 3.08-4.1Zm-1.03 0c0 1.95-.88 3-2.06 3-1.18 0-2.06-1.05-2.06-3s.88-3 2.06-3c1.18 0 2.06 1.05 2.06 3Zm3.73 4h2.63c1.6 0 2.32-.93 2.32-2.16s-.75-1.93-1.43-1.97v-.08c.63-.19 1.16-.69 1.16-1.69 0-1.18-.7-2.1-2.16-2.1h-2.51v8Zm1.04-1.04v-2.56h1.53c.83 0 1.35.63 1.35 1.39 0 .67-.4 1.17-1.39 1.17h-1.49Zm0-3.5v-2.43h1.41c.82 0 1.22.5 1.22 1.17a1.2 1.2 0 0 1-1.24 1.26h-1.39Zm12.51.54c0-2.56-1.31-4.1-3.09-4.1-1.78 0-3.1 1.54-3.1 4.1 0 2.55 1.32 4.1 3.1 4.1s3.09-1.54 3.09-4.1Zm-1.03 0c0 1.95-.88 3-2.06 3-1.18 0-2.06-1.05-2.06-3s.88-3 2.06-3c1.18 0 2.06 1.05 2.06 3Zm-16.53 34.77H376l-2.83-4.38 2.85-3.61h-1.28l-2.67 3.37h-.36v-3.37h-1.03v8h1.03v-3.6h.71l2.32 3.6Zm9.34-3.99c0-2.56-1.31-4.11-3.09-4.11-1.78 0-3.09 1.55-3.09 4.1 0 2.56 1.31 4.11 3.1 4.11 1.77 0 3.08-1.55 3.08-4.1Zm-1.02 0c0 1.94-.89 3-2.07 3-1.18 0-2.06-1.06-2.06-3 0-1.95.88-3.01 2.06-3.01 1.18 0 2.07 1.06 2.07 3Zm3.1-2.97h2.14v6.96h1.03v-6.95h2.14v-1.04h-5.3V157Zm7.9 6.96h4.34v-1.04h-3.3v-2.44h3.03v-1.04h-3.04v-2.43h3.27v-1.04h-4.3v8Zm6.58 0h.3c1.55 0 1.93-1.35 2.02-3.92l.1-3.05h2.34v6.97h1.03v-8h-4.34l-.12 3.76c-.07 2.32-.31 3.16-1.13 3.19h-.2v1.05Zm9.76-4.76v-3.23h-1.04v8h2.56c1.53 0 2.4-1 2.4-2.43 0-1.43-.87-2.35-2.4-2.35h-1.53Zm0 1h1.52c.9 0 1.38.6 1.38 1.32 0 .74-.49 1.43-1.38 1.43h-1.53v-2.74Zm6.6 3.76h1.03v-3.48h3.42v3.48h1.04v-8h-1.04v3.48h-3.42v-3.47H417v8Zm8.41-7.99v8h.95l3.49-5.87h.06v5.86h1.04v-8h-.96l-3.49 5.88h-.06v-5.87h-1.03Zm8.6 0v2.64c0 1.78.92 2.48 2.42 2.48.66 0 1.23-.1 1.73-.26v3.13h1.02v-8h-1.02v3.84c-.52.16-1.15.26-1.73.26-.89 0-1.4-.35-1.4-1.45v-2.64h-1.02Zm11.13 3.49h-3.04v1.01h3.04v-1Zm5.14-3.49h-.96c-.04.22-.56 1.23-1.56 1.23v.99c.78 0 1.31-.36 1.43-.6h.06v6.37h1.03v-8Zm48.68 42.86h-4.28v7.99h1.04v-6.95h3.24v-1.04Zm2.06 7.99h.3c1.56 0 1.93-1.35 2.02-3.92l.1-3.05h2.35v6.97h1.02v-8h-4.34l-.11 3.76c-.08 2.32-.32 3.16-1.14 3.19h-.2v1.05Zm9.29 0 .63-2.11h2.68l.63 2.11h1.1l-2.47-8h-1.2l-2.47 8h1.1Zm.93-3.13 1.01-3.41h.06l1.01 3.41h-2.08Zm8.8 3.24c1.4 0 2.43-.98 2.43-2.3 0-1.01-.52-1.74-1.43-1.9v-.07c.71-.21 1.18-.87 1.18-1.76a2.1 2.1 0 0 0-2.15-2.18c-1.26 0-2.27.88-2.3 2.18h1c.02-.73.62-1.18 1.29-1.18.7 0 1.16.5 1.15 1.24 0 .77-.53 1.28-1.29 1.28h-.57v.98h.57c.96 0 1.5.56 1.5 1.37 0 .78-.57 1.3-1.38 1.3-.75 0-1.32-.44-1.37-1.15h-1.05c.05 1.3 1.04 2.19 2.42 2.19Zm11.16-4.11c0-2.55-1.31-4.1-3.09-4.1-1.78 0-3.09 1.55-3.09 4.1 0 2.56 1.31 4.11 3.1 4.11 1.77 0 3.08-1.55 3.08-4.1Zm-1.02 0c0 1.95-.89 3-2.07 3-1.18 0-2.06-1.05-2.06-3 0-1.94.88-3 2.06-3 1.18 0 2.07 1.06 2.07 3Zm3.72 4h2.64c1.59 0 2.31-.92 2.31-2.15 0-1.24-.74-1.94-1.42-1.98v-.08c.63-.18 1.15-.68 1.15-1.68 0-1.19-.7-2.1-2.16-2.1h-2.51v7.99Zm1.04-1.03v-2.56h1.53c.83 0 1.35.62 1.35 1.38 0 .67-.39 1.18-1.39 1.18h-1.49Zm0-3.5v-2.44h1.41c.83 0 1.22.5 1.22 1.17a1.2 1.2 0 0 1-1.24 1.26h-1.39ZM502 127.97h-5.29v7.99h1.04V129h3.23v6.96H502v-8Zm3 7.99h4.34v-1.04h-3.3v-2.45h3.04v-1.03h-3.04V129h3.26v-1.03H505v7.99Zm7.1 0h1.04v-2.81h1.4c1.6 0 2.38-1.12 2.38-2.6 0-1.47-.78-2.58-2.37-2.58h-2.45v7.99Zm1.04-3.83V129h1.3c1.02 0 1.44.65 1.44 1.55s-.42 1.58-1.43 1.58h-1.31Zm6.41-4.16v7.99h.98v-5.79h.07l2.02 5.78h.82l2.02-5.77h.06v5.78h.99v-8h-1.26l-2.18 6.22h-.08l-2.19-6.21h-1.25Zm11.1 3.22v-3.22h-1.04v7.99h2.57c1.52 0 2.4-1 2.4-2.43 0-1.42-.88-2.34-2.4-2.34h-1.53Zm0 1.02h1.53c.88 0 1.37.59 1.37 1.31 0 .74-.49 1.42-1.37 1.42h-1.53v-2.73Zm34.43 37.99h2.13v6.95h1.03v-6.96h2.14v-1.04h-5.3v1.04Zm8.92-1.05h-1.03v8h1.04v-3.4h1.2c.19 2.2 1.42 3.5 3.06 3.5 1.78 0 3.09-1.54 3.09-4.1 0-2.56-1.31-4.1-3.09-4.1-1.68 0-2.94 1.38-3.08 3.7h-1.18v-3.6Zm6.34 4c0 1.95-.89 3-2.07 3-1.18 0-2.06-1.05-2.06-3s.88-3 2.06-3c1.18 0 2.07 1.05 2.07 3Zm3.55-4v8h.99v-5.8h.06l2.02 5.78h.82l2.02-5.77h.07v5.79h.98v-8h-1.26l-2.18 6.22h-.08l-2.18-6.22h-1.26Zm10.05 8h4.34v-1.04h-3.3v-2.45h3.04v-1.03h-3.04v-2.44h3.26v-1.04h-4.3v8Zm7.1 0h1.04v-3.49h3.41v3.49h1.04v-8h-1.03v3.48h-3.42v-3.48h-1.04v8Zm9.46-4.77v-3.23h-1.04v8h2.57c1.53 0 2.4-1 2.4-2.43 0-1.43-.87-2.34-2.4-2.34h-1.53Zm0 1.01h1.53c.89 0 1.38.6 1.38 1.32 0 .74-.5 1.42-1.38 1.42h-1.53v-2.74Zm47.96 23.94c0-2.56-1.32-4.1-3.1-4.1-1.77 0-3.08 1.54-3.08 4.1 0 2.55 1.3 4.1 3.09 4.1 1.77 0 3.09-1.55 3.09-4.1Zm-1.03 0c0 1.94-.88 3-2.06 3-1.19 0-2.07-1.06-2.07-3 0-1.95.88-3 2.07-3 1.18 0 2.06 1.05 2.06 3Zm3.73-4v8h.98v-5.8h.07l2.02 5.78h.82l2.02-5.77h.06v5.78h.99v-7.99h-1.26l-2.18 6.21h-.08l-2.18-6.2h-1.26Zm15.75 2.6c-.24-1.7-1.38-2.7-2.83-2.7-1.78 0-3.09 1.54-3.09 4.1 0 2.55 1.3 4.1 3.09 4.1 1.5 0 2.6-1.1 2.83-2.68h-1.04c-.18 1.02-.92 1.58-1.79 1.58-1.17 0-2.06-1.05-2.06-3 0-1.94.88-3 2.07-3 .87 0 1.6.57 1.77 1.6h1.05Zm6.72 5.39h1.26l-2.83-4.38 2.85-3.6h-1.29l-2.67 3.37h-.35v-3.38h-1.04v8h1.04v-3.59h.7l2.33 3.58Zm76.61-86.82h1.26l-2.83-4.38 2.85-3.61h-1.29l-2.66 3.38h-.36v-3.38h-1.04v8h1.04v-3.59h.71l2.32 3.58Zm3.72 0H765v-2.8h1.4c1.6 0 2.38-1.13 2.38-2.6 0-1.47-.78-2.6-2.37-2.6h-2.45v8Zm1.04-3.83v-3.13h1.3c1.02 0 1.44.65 1.44 1.56 0 .9-.42 1.57-1.43 1.57H765Zm6.26 3.83.63-2.11h2.68l.63 2.11h1.1l-2.47-8h-1.2l-2.47 8h1.1Zm.93-3.13 1.01-3.4h.06l1 3.4h-2.07Zm11.89-2.27c-.24-1.7-1.39-2.7-2.84-2.7-1.77 0-3.08 1.55-3.08 4.1 0 2.56 1.3 4.11 3.08 4.11 1.5 0 2.61-1.1 2.84-2.68h-1.05c-.18 1.02-.91 1.58-1.78 1.58-1.18 0-2.07-1.05-2.07-3 0-1.94.89-3 2.07-3 .88 0 1.6.56 1.78 1.6h1.05Zm2.65 5.4h1.03v-3.48h3.42v3.48h1.04v-8h-1.04v3.48h-3.42v-3.47h-1.03v8Zm14.37-4c0-2.55-1.31-4.1-3.09-4.1-1.78 0-3.09 1.55-3.09 4.1 0 2.56 1.31 4.11 3.1 4.11 1.77 0 3.08-1.55 3.08-4.1Zm-1.02 0c0 1.95-.89 3.01-2.07 3.01-1.18 0-2.06-1.06-2.06-3 0-1.95.88-3 2.06-3 1.18 0 2.07 1.05 2.07 3Zm8.3 4v-8h-2.45c-1.59 0-2.37 1.04-2.37 2.52 0 1.07.42 1.88 1.26 2.25l-1.52 3.23h1.18l1.4-3.02h1.46v3.02h1.04Zm-1.03-4.06h-1.32c-1 0-1.43-.52-1.43-1.42 0-.91.42-1.48 1.44-1.48h1.3v2.9Zm3.95 4.06h1.03v-2.8h1.4c1.6 0 2.39-1.13 2.39-2.6 0-1.47-.78-2.6-2.38-2.6h-2.44v8Zm1.03-3.83v-3.13h1.3c1.03 0 1.45.65 1.45 1.56 0 .9-.42 1.57-1.43 1.57h-1.32Zm12.11-1.57c-.23-1.7-1.38-2.7-2.83-2.7-1.78 0-3.09 1.55-3.09 4.1 0 2.56 1.3 4.11 3.09 4.11 1.5 0 2.6-1.1 2.83-2.68h-1.04c-.18 1.02-.92 1.58-1.78 1.58-1.18 0-2.07-1.05-2.07-3 0-1.94.89-3 2.07-3 .87 0 1.6.56 1.78 1.6h1.04Zm6.72 5.4h1.26l-2.83-4.38 2.85-3.61h-1.29l-2.67 3.38h-.35v-3.38h-1.03v8h1.03v-3.59h.7l2.33 3.58Zm-4.42 62.76h.47c1.07 0 1.42-.7 1.72-1.5l2.38-6.6h-1.09l-1.6 4.62-1.8-4.63h-1.1l2.41 6-.1.29c-.14.41-.37.75-.88.75h-.41v1.07Zm6.44-.11h.3c1.56 0 1.93-1.35 2.02-3.92l.1-3.05h2.35v6.97h1.02v-8h-4.34l-.11 3.76c-.08 2.31-.32 3.16-1.14 3.18l-.2.01v1.05Zm9.29 0 .63-2.12h2.68l.63 2.12h1.1l-2.47-8h-1.2l-2.47 8h1.1Zm.93-3.13 1.01-3.41h.06l1.01 3.4h-2.08Zm6.51 3.13h1.04v-3.49h3.41v3.49h1.04v-8h-1.03v3.48h-3.42v-3.48h-1.04v8Zm11.37-4.5h-3.04v1h3.04v-1Zm2.72 4.61h.46c1.07 0 1.43-.7 1.73-1.5l2.37-6.6h-1.08l-1.6 4.62-1.8-4.63h-1.1l2.4 6-.09.29c-.15.41-.37.75-.89.75h-.4v1.07Zm6.43 1.82h1v-1.93h4.6v1.92h1v-2.95h-.78v-6.97H872l-.15 3.38c-.1 2.22-.51 3.14-.97 3.6h-.46v2.95Zm1.68-2.96c.39-.72.65-1.9.74-3.59l.1-2.34h2.3v5.93h-3.14Zm7.24-1.51c.13 1.51.98 2.65 2.64 2.65 1.65 0 2.71-1.44 2.71-3.68v-.84c0-2.24-1.07-3.7-2.77-3.7-1.61 0-2.45 1.15-2.58 2.7h1.05c.11-1.04.53-1.66 1.53-1.66 1.1 0 1.72 1.04 1.72 2.66h-2.53v1.02h2.53c-.04 1.4-.57 2.47-1.66 2.47-1.03 0-1.47-.57-1.59-1.62h-1.05Z" fill="#fff"/><path d="M101.36 36.84c0 2.12-1.47 3.84-3.3 3.84-1.81 0-3.29-1.72-3.29-3.84S96.25 33 98.07 33c1.82 0 3.3 1.72 3.3 3.84Z" fill="#272722"/><path fill-rule="evenodd" clip-rule="evenodd" d="M98.07 39.58c1.3 0 2.35-1.23 2.35-2.74 0-1.51-1.05-2.74-2.35-2.74s-2.35 1.23-2.35 2.74c0 1.51 1.05 2.74 2.35 2.74Zm0 1.1c1.82 0 3.3-1.72 3.3-3.84S99.88 33 98.06 33s-3.3 1.72-3.3 3.84 1.48 3.84 3.3 3.84Z" fill="#fff"/><path d="M20.48 126.04c0 2.12-1.47 3.83-3.3 3.83-1.81 0-3.29-1.71-3.29-3.83 0-2.13 1.48-3.84 3.3-3.84 1.82 0 3.3 1.72 3.3 3.84Z" fill="#131313"/><path fill-rule="evenodd" clip-rule="evenodd" d="M17.19 128.78c1.3 0 2.35-1.23 2.35-2.74 0-1.52-1.05-2.74-2.35-2.74s-2.35 1.22-2.35 2.74c0 1.5 1.05 2.73 2.35 2.73Zm0 1.1c1.82 0 3.3-1.72 3.3-3.84 0-2.13-1.48-3.84-3.3-3.84-1.82 0-3.3 1.72-3.3 3.84s1.48 3.83 3.3 3.83Z" fill="#fff"/><path d="M203.48 171.2c0 2.12-1.48 3.84-3.3 3.84-1.82 0-3.3-1.72-3.3-3.84s1.48-3.84 3.3-3.84c1.82 0 3.3 1.72 3.3 3.84Z" fill="#4D5648"/><path fill-rule="evenodd" clip-rule="evenodd" d="M200.18 173.94c1.3 0 2.35-1.23 2.35-2.74 0-1.51-1.05-2.74-2.35-2.74s-2.35 1.22-2.35 2.74c0 1.51 1.05 2.74 2.35 2.74Zm0 1.1c1.82 0 3.3-1.72 3.3-3.84s-1.48-3.84-3.3-3.84c-1.82 0-3.3 1.72-3.3 3.84s1.48 3.84 3.3 3.84Z" fill="#fff"/><path d="M233.95 195.2c0 2.11-1.47 3.83-3.3 3.83-1.81 0-3.29-1.72-3.29-3.84s1.48-3.84 3.3-3.84c1.81 0 3.29 1.72 3.29 3.84Z" fill="#47443E"/><path fill-rule="evenodd" clip-rule="evenodd" d="M230.66 197.93c1.3 0 2.35-1.22 2.35-2.74 0-1.5-1.06-2.74-2.35-2.74-1.3 0-2.36 1.23-2.36 2.74 0 1.52 1.06 2.74 2.35 2.74Zm0 1.1c1.81 0 3.29-1.72 3.29-3.84s-1.47-3.84-3.3-3.84c-1.81 0-3.29 1.72-3.29 3.84s1.48 3.84 3.3 3.84Z" fill="#fff"/><path d="M317.13 139.53c0 2.12-1.48 3.84-3.3 3.84-1.82 0-3.3-1.72-3.3-3.84s1.48-3.84 3.3-3.84c1.82 0 3.3 1.72 3.3 3.84Z" fill="#93A47C"/><path fill-rule="evenodd" clip-rule="evenodd" d="M313.83 142.27c1.3 0 2.35-1.23 2.35-2.74 0-1.51-1.05-2.74-2.35-2.74s-2.35 1.23-2.35 2.74c0 1.51 1.05 2.74 2.35 2.74Zm0 1.1c1.82 0 3.3-1.72 3.3-3.84s-1.48-3.84-3.3-3.84c-1.82 0-3.3 1.72-3.3 3.84s1.48 3.84 3.3 3.84Z" fill="#fff"/><path d="M390.42 176.96c0 2.12-1.47 3.84-3.3 3.84-1.81 0-3.29-1.72-3.29-3.84s1.48-3.84 3.3-3.84c1.82 0 3.3 1.72 3.3 3.84Z" fill="#738F8C"/><path fill-rule="evenodd" clip-rule="evenodd" d="M387.13 179.7c1.3 0 2.35-1.23 2.35-2.74 0-1.51-1.05-2.74-2.35-2.74s-2.35 1.23-2.35 2.74c0 1.51 1.05 2.74 2.35 2.74Zm0 1.1c1.82 0 3.3-1.72 3.3-3.84s-1.48-3.84-3.3-3.84c-1.82 0-3.3 1.72-3.3 3.84s1.48 3.84 3.3 3.84Z" fill="#fff"/><path d="M486.77 202.87c0 2.12-1.47 3.84-3.3 3.84-1.81 0-3.29-1.72-3.29-3.84s1.48-3.84 3.3-3.84c1.82 0 3.3 1.72 3.3 3.84Z" fill="#789186"/><path fill-rule="evenodd" clip-rule="evenodd" d="M483.48 205.61c1.3 0 2.35-1.23 2.35-2.74 0-1.51-1.05-2.74-2.35-2.74s-2.35 1.23-2.35 2.74c0 1.51 1.05 2.74 2.35 2.74Zm0 1.1c1.82 0 3.3-1.72 3.3-3.84s-1.48-3.84-3.3-3.84c-1.82 0-3.3 1.72-3.3 3.84s1.48 3.84 3.3 3.84Z" fill="#fff"/><path d="M518.07 146.25c0 2.12-1.48 3.84-3.3 3.84-1.82 0-3.3-1.72-3.3-3.84s1.48-3.84 3.3-3.84c1.82 0 3.3 1.72 3.3 3.84Z" fill="#8CBABB"/><path fill-rule="evenodd" clip-rule="evenodd" d="M514.77 149c1.3 0 2.35-1.24 2.35-2.75s-1.05-2.74-2.35-2.74-2.35 1.23-2.35 2.74c0 1.51 1.05 2.74 2.35 2.74Zm0 1.09c1.82 0 3.3-1.72 3.3-3.84s-1.48-3.84-3.3-3.84c-1.82 0-3.3 1.72-3.3 3.84s1.48 3.84 3.3 3.84Z" fill="#fff"/><path d="M571.6 189.44c0 2.12-1.48 3.84-3.3 3.84-1.82 0-3.3-1.72-3.3-3.84s1.48-3.84 3.3-3.84c1.82 0 3.3 1.72 3.3 3.84Z" fill="#414847"/><path fill-rule="evenodd" clip-rule="evenodd" d="M568.3 192.18c1.3 0 2.35-1.23 2.35-2.74 0-1.52-1.05-2.74-2.35-2.74s-2.35 1.22-2.35 2.74c0 1.51 1.05 2.74 2.35 2.74Zm0 1.1c1.82 0 3.3-1.72 3.3-3.84s-1.48-3.84-3.3-3.84c-1.82 0-3.3 1.72-3.3 3.84s1.48 3.84 3.3 3.84Z" fill="#fff"/><path d="M671.25 175.04c0 2.12-1.48 3.84-3.3 3.84-1.82 0-3.3-1.72-3.3-3.84s1.48-3.84 3.3-3.84c1.82 0 3.3 1.72 3.3 3.84Z" fill="#577379"/><path fill-rule="evenodd" clip-rule="evenodd" d="M667.95 177.78c1.3 0 2.35-1.23 2.35-2.74 0-1.51-1.05-2.74-2.35-2.74s-2.35 1.22-2.35 2.74c0 1.51 1.05 2.74 2.35 2.74Zm0 1.1c1.82 0 3.3-1.72 3.3-3.84s-1.48-3.84-3.3-3.84c-1.82 0-3.3 1.72-3.3 3.84s1.48 3.84 3.3 3.84Z" fill="#fff"/><path d="M798.5 123.22c0 2.11-1.48 3.83-3.3 3.83-1.82 0-3.3-1.72-3.3-3.83 0-2.13 1.48-3.84 3.3-3.84 1.82 0 3.3 1.72 3.3 3.84Z" fill="#3E403A"/><path fill-rule="evenodd" clip-rule="evenodd" d="M795.2 125.95c1.3 0 2.35-1.22 2.35-2.73 0-1.52-1.05-2.75-2.35-2.75s-2.35 1.23-2.35 2.75c0 1.5 1.05 2.73 2.35 2.73Zm0 1.1c1.82 0 3.3-1.72 3.3-3.83 0-2.13-1.48-3.84-3.3-3.84-1.82 0-3.3 1.72-3.3 3.84 0 2.11 1.48 3.83 3.3 3.83Z" fill="#fff"/><path d="M857.95 153.51c0 2.12-1.48 3.84-3.3 3.84-1.82 0-3.29-1.72-3.29-3.84s1.47-3.84 3.3-3.84c1.81 0 3.29 1.72 3.29 3.84Z" fill="#181A19"/><path fill-rule="evenodd" clip-rule="evenodd" d="M854.65 156.25c1.3 0 2.36-1.23 2.36-2.74 0-1.51-1.06-2.74-2.36-2.74-1.3 0-2.35 1.23-2.35 2.74 0 1.51 1.06 2.74 2.35 2.74Zm0 1.1c1.82 0 3.3-1.72 3.3-3.84s-1.48-3.84-3.3-3.84c-1.82 0-3.29 1.72-3.29 3.84s1.47 3.84 3.3 3.84Z" fill="#fff"/></svg>